<svg width="45" height="45" viewBox="0 0 45 45" fill="none" xmlns="http://www.w3.org/2000/svg">
<circle cx="22.5" cy="22.5" r="22.5" fill="black"/>
<path d="M23 14C21.6094 14.0018 20.2762 14.555 19.2929 15.5383C18.3096 16.5216 17.7564 17.8547 17.7546 19.2453H20.4213C20.4213 17.8227 21.5786 16.6667 23 16.6667C24.4213 16.6667 25.5786 17.8227 25.5786 19.2453C25.5786 20.0427 24.9373 20.6213 23.9573 21.4133C23.6372 21.6641 23.3297 21.9307 23.036 22.212C21.7053 23.5413 21.6666 24.9533 21.6666 25.1107V26H24.3333L24.332 25.156C24.3333 25.1347 24.376 24.6413 24.92 24.0987C25.12 23.8987 25.372 23.6987 25.6333 23.488C26.672 22.6467 28.244 21.376 28.244 19.2453C28.2429 17.8547 27.6901 16.5214 26.707 15.538C25.7238 14.5545 24.3906 14.0014 23 14ZM21.6666 27.3333H24.3333V30H21.6666V27.3333Z" fill="white"/>
<path d="M23.0001 8.66669C15.6481 8.66669 9.66675 14.648 9.66675 22C9.66675 29.352 15.6481 35.3334 23.0001 35.3334C30.3521 35.3334 36.3334 29.352 36.3334 22C36.3334 14.648 30.3521 8.66669 23.0001 8.66669ZM23.0001 32.6667C17.1187 32.6667 12.3334 27.8814 12.3334 22C12.3334 16.1187 17.1187 11.3334 23.0001 11.3334C28.8814 11.3334 33.6667 16.1187 33.6667 22C33.6667 27.8814 28.8814 32.6667 23.0001 32.6667Z" fill="white"/>
</svg>
