<svg width="45" height="45" viewBox="0 0 45 45" fill="none" xmlns="http://www.w3.org/2000/svg">
<path d="M45 22.5C45 34.9264 34.9264 45 22.5 45C10.0736 45 0 34.9264 0 22.5C0 10.0736 10.0736 0 22.5 0C34.9264 0 45 10.0736 45 22.5Z" fill="black"/>
<path d="M21.7143 22C21.7143 22.341 21.8498 22.668 22.0909 22.9091C22.332 23.1503 22.659 23.2857 23 23.2857C23.341 23.2857 23.668 23.1503 23.9091 22.9091C24.1502 22.668 24.2857 22.341 24.2857 22C24.2857 21.659 24.1502 21.332 23.9091 21.0909C23.668 20.8497 23.341 20.7143 23 20.7143C22.659 20.7143 22.332 20.8497 22.0909 21.0909C21.8498 21.332 21.7143 21.659 21.7143 22ZM27.0714 22C27.0714 22.341 27.2068 22.668 27.448 22.9091C27.6891 23.1503 28.0161 23.2857 28.3571 23.2857C28.6981 23.2857 29.0251 23.1503 29.2662 22.9091C29.5073 22.668 29.6428 22.341 29.6428 22C29.6428 21.659 29.5073 21.332 29.2662 21.0909C29.0251 20.8497 28.6981 20.7143 28.3571 20.7143C28.0161 20.7143 27.6891 20.8497 27.448 21.0909C27.2068 21.332 27.0714 21.659 27.0714 22ZM16.3572 22C16.3572 22.341 16.4927 22.668 16.7338 22.9091C16.9749 23.1503 17.3019 23.2857 17.6429 23.2857C17.9839 23.2857 18.3109 23.1503 18.5521 22.9091C18.7932 22.668 18.9286 22.341 18.9286 22C18.9286 21.659 18.7932 21.332 18.5521 21.0909C18.3109 20.8497 17.9839 20.7143 17.6429 20.7143C17.3019 20.7143 16.9749 20.8497 16.7338 21.0909C16.4927 21.332 16.3572 21.659 16.3572 22ZM34.0677 17.35C33.4624 15.9116 32.5945 14.6205 31.4883 13.5116C30.3898 12.4091 29.0857 11.5327 27.6499 10.9321C26.1767 10.3134 24.6125 10 23 10H22.9464C21.3232 10.008 19.7509 10.3295 18.2724 10.9616C16.8489 11.5684 15.5571 12.4463 14.4689 13.5464C13.3733 14.6527 12.5135 15.9384 11.9189 17.3714C11.3028 18.8554 10.9921 20.433 11.0002 22.0562C11.0092 23.9164 11.4493 25.7492 12.2859 27.4107V31.4821C12.2859 31.8089 12.4157 32.1223 12.6467 32.3534C12.8778 32.5845 13.1912 32.7143 13.518 32.7143H17.592C19.2535 33.5508 21.0863 33.9909 22.9464 34H23.0027C24.6071 34 26.1634 33.6893 27.6285 33.0813C29.0571 32.4878 30.3562 31.6217 31.4535 30.5312C32.5597 29.4357 33.4302 28.1554 34.0383 26.7277C34.6704 25.2491 34.9918 23.6768 34.9999 22.0536C35.0079 20.4223 34.6918 18.8393 34.0677 17.35ZM30.0204 29.0821C28.1428 30.9411 25.6518 31.9643 23 31.9643H22.9545C21.3393 31.9563 19.7349 31.5545 18.3179 30.7991L18.0929 30.6786H14.3215V26.9071L14.201 26.6821C13.4457 25.2652 13.0439 23.6607 13.0358 22.0455C13.0251 19.375 14.0456 16.8679 15.9179 14.9795C17.7876 13.0911 20.2866 12.0464 22.9571 12.0357H23.0027C24.3419 12.0357 25.641 12.2955 26.8651 12.8098C28.0598 13.3107 29.1312 14.0312 30.0526 14.9527C30.9713 15.8714 31.6945 16.9455 32.1954 18.1402C32.7151 19.3777 32.9749 20.6902 32.9695 22.0455C32.9534 24.7134 31.9061 27.2125 30.0204 29.0821Z" fill="white"/>
</svg>
