<svg width="45" height="45" viewBox="0 0 45 45" fill="none" xmlns="http://www.w3.org/2000/svg">
<circle cx="22.5" cy="22.5" r="22.5" fill="black"/>
<path d="M32.75 13.75H13.25C12.8352 13.75 12.5 14.0852 12.5 14.5V29.5C12.5 29.9148 12.8352 30.25 13.25 30.25H32.75C33.1648 30.25 33.5 29.9148 33.5 29.5V14.5C33.5 14.0852 33.1648 13.75 32.75 13.75ZM31.8125 16.3469V28.5625H14.1875V16.3469L13.5406 15.843L14.4617 14.6594L15.4648 15.4398H30.5375L31.5406 14.6594L32.4617 15.843L31.8125 16.3469ZM30.5375 15.4375L23 21.2969L15.4625 15.4375L14.4594 14.657L13.5383 15.8406L14.1852 16.3445L22.1914 22.5695C22.4217 22.7484 22.7049 22.8455 22.9965 22.8455C23.2881 22.8455 23.5713 22.7484 23.8016 22.5695L31.8125 16.3469L32.4594 15.843L31.5383 14.6594L30.5375 15.4375Z" fill="white"/>
</svg>
