<svg width="45" height="45" viewBox="0 0 45 45" fill="none" xmlns="http://www.w3.org/2000/svg">
<circle cx="22.5" cy="22.5" r="22.5" fill="black"/>
<path d="M26.0001 29C26.0001 29.7957 25.684 30.5587 25.1214 31.1213C24.5588 31.6839 23.7958 32 23.0001 32C22.2045 32 21.4414 31.6839 20.8788 31.1213C20.3162 30.5587 20.0001 29.7957 20.0001 29M23.7211 15.003L22.2551 15C18.9111 14.992 16.0081 17.709 15.9851 21V24.79C15.9851 25.58 15.8851 26.351 15.4541 27.008L15.1671 27.446C14.7301 28.11 15.2001 29 15.9851 29H30.0151C30.8001 29 31.2691 28.11 30.8331 27.446L30.5461 27.008C30.1161 26.351 30.0151 25.579 30.0151 24.789V21.001C29.9751 17.709 27.0651 15.011 23.7211 15.003V15.003Z" stroke="white" stroke-width="2" stroke-linecap="round" stroke-linejoin="round"/>
<path d="M23 12C23.5304 12 24.0391 12.2107 24.4142 12.5858C24.7893 12.9609 25 13.4696 25 14V15H21V14C21 13.4696 21.2107 12.9609 21.5858 12.5858C21.9609 12.2107 22.4696 12 23 12Z" stroke="white" stroke-width="2" stroke-linecap="round" stroke-linejoin="round"/>
</svg>
