<svg width="95" height="95" viewBox="0 0 95 95" fill="none" xmlns="http://www.w3.org/2000/svg">
<circle cx="47.5" cy="47.5" r="47.5" fill="black"/>
<path d="M47.5 47.5C45.0937 47.5 43.0339 46.6024 41.3203 44.8072C39.6068 43.0121 38.75 40.8541 38.75 38.3333C38.75 35.8125 39.6068 33.6545 41.3203 31.8593C43.0339 30.0642 45.0937 29.1666 47.5 29.1666C49.9062 29.1666 51.9661 30.0642 53.6797 31.8593C55.3932 33.6545 56.25 35.8125 56.25 38.3333C56.25 40.8541 55.3932 43.0121 53.6797 44.8072C51.9661 46.6024 49.9062 47.5 47.5 47.5ZM30 65.8333V59.4166C30 58.118 30.3194 56.9241 30.9581 55.8347C31.5954 54.747 32.4427 53.9166 33.5 53.3437C35.7604 52.1597 38.0573 51.2713 40.3906 50.6785C42.724 50.0872 45.0937 49.7916 47.5 49.7916C49.9062 49.7916 52.276 50.0872 54.6094 50.6785C56.9427 51.2713 59.2396 52.1597 61.5 53.3437C62.5573 53.9166 63.4046 54.747 64.0419 55.8347C64.6806 56.9241 65 58.118 65 59.4166V65.8333H30Z" fill="white"/>
</svg>
