<svg width="45" height="47" viewBox="0 0 45 47" fill="none" xmlns="http://www.w3.org/2000/svg">
<circle cx="22.5" cy="23.2346" r="22.5" fill="white"/>
<path d="M23 30.5C26.771 30.5 28.657 30.5 29.828 29.328C31 28.157 31 26.271 31 22.5C31 18.729 31 16.843 29.828 15.672C28.657 14.5 26.771 14.5 23 14.5H19C15.229 14.5 13.343 14.5 12.172 15.672C11 16.843 11 18.729 11 22.5C11 26.271 11 28.157 12.172 29.328C12.825 29.982 13.7 30.271 15 30.398" stroke="black" stroke-width="2" stroke-linecap="round" stroke-linejoin="round"/>
<path d="M23 30.5C21.764 30.5 20.402 31 19.159 31.645C17.161 32.682 16.162 33.201 15.67 32.87C15.178 32.54 15.271 31.515 15.458 29.466L15.5 29" stroke="black" stroke-width="2" stroke-linecap="round"/>
</svg>
