<svg width="42" height="47" viewBox="0 0 42 47" fill="none" xmlns="http://www.w3.org/2000/svg">
<ellipse cx="21.079" cy="23.7346" rx="20.9211" ry="22.5" fill="white"/>
<path d="M32.217 24.368C32.721 23.7215 33 22.9294 33 22.1052C33 20.7976 32.247 19.5599 31.035 18.8697C30.723 18.692 30.3677 18.5985 30.006 18.5989H22.812L22.992 15.0197C23.034 14.1547 22.719 13.3335 22.107 12.7073C21.8067 12.3987 21.4443 12.1532 21.0423 11.9859C20.6404 11.8186 20.2073 11.7331 19.77 11.7346C18.21 11.7346 16.83 12.7539 16.416 14.213L13.839 23.2701H9.96C9.429 23.2701 9 23.6866 9 24.202V34.8027C9 35.3182 9.429 35.7346 9.96 35.7346H27.999C28.275 35.7346 28.545 35.6822 28.794 35.5774C30.222 34.9862 31.143 33.632 31.143 32.1292C31.143 31.7623 31.089 31.4012 30.981 31.0517C31.485 30.4052 31.764 29.613 31.764 28.7889C31.764 28.4219 31.71 28.0608 31.602 27.7113C32.106 27.0648 32.385 26.2727 32.385 25.4485C32.379 25.0816 32.325 24.7175 32.217 24.368ZM11.16 33.6378V25.367H13.59V33.6378H11.16ZM30.252 23.3575L29.595 23.9108L30.012 24.6505C30.1494 24.8942 30.2206 25.1678 30.219 25.4456C30.219 25.9261 30.003 26.3833 29.631 26.6979L28.974 27.2512L29.391 27.9909C29.5284 28.2346 29.5996 28.5082 29.598 28.786C29.598 29.2665 29.382 29.7237 29.01 30.0382L28.353 30.5916L28.77 31.3313C28.9074 31.5749 28.9786 31.8485 28.977 32.1263C28.977 32.7787 28.581 33.3669 27.969 33.6349H15.51V25.2738L18.495 14.775C18.572 14.506 18.7372 14.2685 18.9656 14.0988C19.1941 13.9291 19.4733 13.8362 19.761 13.8344C19.989 13.8344 20.214 13.8985 20.394 14.0295C20.691 14.245 20.85 14.5712 20.832 14.9177L20.544 20.6957H29.976C30.51 21.0131 30.84 21.549 30.84 22.1052C30.84 22.5857 30.624 23.0401 30.252 23.3575Z" fill="black"/>
</svg>
