<svg width="149" height="145" viewBox="0 0 149 145" fill="none" xmlns="http://www.w3.org/2000/svg">
<path d="M60.0003 137.75C60.0003 141.756 58.054 145 55.656 145C53.2557 145 51.3118 141.753 51.3118 137.75V121C51.3118 116.995 53.2557 113.75 55.656 113.75C58.054 113.75 60.0003 116.997 60.0003 121V137.75ZM92.161 137.75C92.161 141.756 90.2147 145 87.8168 145C85.4188 145 83.4725 141.753 83.4725 137.75V121C83.4725 116.995 85.4188 113.75 87.8168 113.75C90.2147 113.75 92.161 116.997 92.161 121V137.75Z" fill="#F79420"/>
<path d="M0.621582 92.7547C0.621582 83.2436 14.8231 86.1028 26.1565 86.1028C37.4991 86.1028 47.5729 85.9261 47.5729 95.4327C47.5729 104.957 38.3768 112.667 27.0435 112.667C15.7008 112.667 0.621582 102.277 0.621582 92.7547ZM148.381 92.7547C148.381 83.2436 134.179 86.1028 122.834 86.1028C111.494 86.1028 101.42 85.9261 101.42 95.4327C101.42 104.957 110.616 112.667 121.956 112.667C133.292 112.667 148.381 102.277 148.381 92.7547Z" fill="#58767D"/>
<path d="M18.6948 86.3883C18.6948 108.267 43.7874 125.989 74.7794 125.989C105.764 125.989 130.864 108.27 130.864 86.3883C130.864 64.5295 105.764 10.5986 74.7794 10.5986C43.7874 10.5986 18.6948 64.5295 18.6948 86.3883Z" fill="#7094A6"/>
<path d="M51.8124 62.0215C58.1539 62.0215 63.2947 55.9557 63.2947 48.4731C63.2947 40.9905 58.1539 34.9246 51.8124 34.9246C45.4709 34.9246 40.3301 40.9905 40.3301 48.4731C40.3301 55.9557 45.4709 62.0215 51.8124 62.0215Z" fill="#F4F5F5"/>
<path d="M59.4301 48.9942C59.4301 53.9604 56.017 57.9842 51.8171 57.9842C47.6079 57.9842 44.1948 53.9627 44.1948 48.9942C44.1948 44.0347 47.6079 40.0042 51.8171 40.0042C56.017 40.0042 59.4301 44.0347 59.4301 48.9942Z" fill="#25333A"/>
<path d="M97.8278 62.0215C104.169 62.0215 109.31 55.9557 109.31 48.4731C109.31 40.9905 104.169 34.9246 97.8278 34.9246C91.4863 34.9246 86.3455 40.9905 86.3455 48.4731C86.3455 55.9557 91.4863 62.0215 97.8278 62.0215Z" fill="#F4F5F5"/>
<path d="M97.8277 57.9842C102.034 57.9842 105.443 53.9592 105.443 48.9942C105.443 44.0291 102.034 40.0042 97.8277 40.0042C93.6219 40.0042 90.2124 44.0291 90.2124 48.9942C90.2124 53.9592 93.6219 57.9842 97.8277 57.9842Z" fill="#25333A"/>
<path d="M60.6011 62.7397C60.6011 56.1807 66.9452 61.1356 74.7677 61.1356C82.5949 61.1356 88.932 56.1807 88.932 62.7397C88.932 69.31 82.5925 81.7211 74.7677 81.7211C66.9452 81.7211 60.6011 69.31 60.6011 62.7397Z" fill="#F05A2A"/>
<path d="M60.6011 58.2674C60.6011 51.7084 66.9475 56.661 74.7654 56.661C82.5832 56.661 88.9297 51.7106 88.9297 58.2674C88.9297 64.8354 82.5832 77.2465 74.7654 77.2465C66.9475 77.2465 60.6011 64.8354 60.6011 58.2674Z" fill="#F79420"/>
</svg>
